<mxfile host="app.diagrams.net" modified="2023-06-07T10:13:32.897Z" agent="Mozilla/5.0 (Windows NT 10.0; Win64; x64) AppleWebKit/537.36 (KHTML, like Gecko) Chrome/114.0.0.0 Safari/537.36" etag="dtSaBlSY1FfrwIkC-o7L" version="21.3.7" type="github">
  <diagram name="Page-1" id="8_Ol5ARYPN9jngc-X0_Y">
    <mxGraphModel dx="1195" dy="697" grid="1" gridSize="10" guides="1" tooltips="1" connect="1" arrows="1" fold="1" page="1" pageScale="1" pageWidth="827" pageHeight="1169" math="0" shadow="0">
      <root>
        <mxCell id="0" />
        <mxCell id="1" parent="0" />
        <mxCell id="P5K-hXNA6Evzv9LcCiTs-30" style="edgeStyle=orthogonalEdgeStyle;rounded=0;orthogonalLoop=1;jettySize=auto;html=1;endArrow=none;endFill=0;entryX=0.017;entryY=0.461;entryDx=0;entryDy=0;entryPerimeter=0;" edge="1" parent="1" source="P5K-hXNA6Evzv9LcCiTs-1" target="P5K-hXNA6Evzv9LcCiTs-17">
          <mxGeometry relative="1" as="geometry">
            <mxPoint x="620" y="510" as="targetPoint" />
          </mxGeometry>
        </mxCell>
        <mxCell id="P5K-hXNA6Evzv9LcCiTs-34" style="edgeStyle=orthogonalEdgeStyle;rounded=0;orthogonalLoop=1;jettySize=auto;html=1;endArrow=none;endFill=0;entryX=1;entryY=0.5;entryDx=0;entryDy=0;entryPerimeter=0;" edge="1" parent="1" source="P5K-hXNA6Evzv9LcCiTs-1" target="P5K-hXNA6Evzv9LcCiTs-2">
          <mxGeometry relative="1" as="geometry">
            <mxPoint x="530" y="520" as="targetPoint" />
            <Array as="points">
              <mxPoint x="490" y="520" />
              <mxPoint x="370" y="520" />
            </Array>
          </mxGeometry>
        </mxCell>
        <mxCell id="P5K-hXNA6Evzv9LcCiTs-1" value="" style="verticalLabelPosition=bottom;shadow=0;dashed=0;align=center;html=1;verticalAlign=top;shape=mxgraph.electrical.logic_gates.buffer2;direction=east;allowArrows=1;connectable=1;negating=0;noLabel=0;collapsible=0;comic=0;enumerate=0;treeMoving=0;treeFolding=0;fillOpacity=100;strokeOpacity=100;" vertex="1" parent="1">
          <mxGeometry x="440" y="563" width="100" height="60" as="geometry" />
        </mxCell>
        <mxCell id="P5K-hXNA6Evzv9LcCiTs-2" value="" style="verticalLabelPosition=bottom;shadow=0;dashed=0;align=center;html=1;verticalAlign=top;shape=mxgraph.electrical.logic_gates.logic_gate;operation=or;" vertex="1" parent="1">
          <mxGeometry x="270" y="563" width="100" height="60" as="geometry" />
        </mxCell>
        <mxCell id="P5K-hXNA6Evzv9LcCiTs-5" value="" style="verticalLabelPosition=bottom;shadow=0;dashed=0;align=center;html=1;verticalAlign=top;shape=mxgraph.electrical.mosfets1.p-channel_mosfet_1;direction=west;portConstraintRotation=0;flipH=1;" vertex="1" parent="1">
          <mxGeometry x="430" y="330" width="95" height="100" as="geometry" />
        </mxCell>
        <mxCell id="P5K-hXNA6Evzv9LcCiTs-11" style="edgeStyle=orthogonalEdgeStyle;rounded=0;orthogonalLoop=1;jettySize=auto;html=1;entryX=0;entryY=0.25;entryDx=0;entryDy=0;entryPerimeter=0;endArrow=none;endFill=0;" edge="1" parent="1" source="P5K-hXNA6Evzv9LcCiTs-9" target="P5K-hXNA6Evzv9LcCiTs-2">
          <mxGeometry relative="1" as="geometry" />
        </mxCell>
        <mxCell id="P5K-hXNA6Evzv9LcCiTs-9" value="pup_en" style="text;html=1;align=center;verticalAlign=middle;resizable=0;points=[];autosize=1;strokeColor=none;fillColor=none;fontSize=15;fontStyle=1" vertex="1" parent="1">
          <mxGeometry x="90" y="563" width="80" height="30" as="geometry" />
        </mxCell>
        <mxCell id="P5K-hXNA6Evzv9LcCiTs-12" style="edgeStyle=orthogonalEdgeStyle;rounded=0;orthogonalLoop=1;jettySize=auto;html=1;entryX=0;entryY=0.75;entryDx=0;entryDy=0;entryPerimeter=0;endArrow=none;endFill=0;" edge="1" parent="1" source="P5K-hXNA6Evzv9LcCiTs-10" target="P5K-hXNA6Evzv9LcCiTs-2">
          <mxGeometry relative="1" as="geometry" />
        </mxCell>
        <mxCell id="P5K-hXNA6Evzv9LcCiTs-27" style="edgeStyle=orthogonalEdgeStyle;rounded=0;orthogonalLoop=1;jettySize=auto;html=1;endArrow=none;endFill=0;entryX=0;entryY=0.5;entryDx=0;entryDy=0;exitX=-0.052;exitY=0.444;exitDx=0;exitDy=0;exitPerimeter=0;" edge="1" parent="1" source="P5K-hXNA6Evzv9LcCiTs-9" target="P5K-hXNA6Evzv9LcCiTs-1">
          <mxGeometry relative="1" as="geometry">
            <Array as="points">
              <mxPoint x="50" y="576" />
              <mxPoint x="50" y="660" />
              <mxPoint x="440" y="660" />
            </Array>
          </mxGeometry>
        </mxCell>
        <mxCell id="P5K-hXNA6Evzv9LcCiTs-10" value="pdown_en" style="text;html=1;align=center;verticalAlign=middle;resizable=0;points=[];autosize=1;strokeColor=none;fillColor=none;fontSize=15;fontStyle=1" vertex="1" parent="1">
          <mxGeometry x="70" y="593" width="100" height="30" as="geometry" />
        </mxCell>
        <mxCell id="P5K-hXNA6Evzv9LcCiTs-18" style="edgeStyle=orthogonalEdgeStyle;rounded=0;orthogonalLoop=1;jettySize=auto;html=1;entryX=0.7;entryY=0;entryDx=0;entryDy=0;entryPerimeter=0;endArrow=none;endFill=0;" edge="1" parent="1" source="P5K-hXNA6Evzv9LcCiTs-17" target="P5K-hXNA6Evzv9LcCiTs-5">
          <mxGeometry relative="1" as="geometry">
            <mxPoint x="530" y="315" as="targetPoint" />
          </mxGeometry>
        </mxCell>
        <mxCell id="P5K-hXNA6Evzv9LcCiTs-17" value="mg" style="text;html=1;align=center;verticalAlign=middle;resizable=0;points=[];autosize=1;strokeColor=none;fillColor=none;fontSize=15;fontStyle=1" vertex="1" parent="1">
          <mxGeometry x="680" y="490" width="50" height="30" as="geometry" />
        </mxCell>
        <mxCell id="P5K-hXNA6Evzv9LcCiTs-26" style="edgeStyle=orthogonalEdgeStyle;rounded=0;orthogonalLoop=1;jettySize=auto;html=1;entryX=0.7;entryY=1;entryDx=0;entryDy=0;entryPerimeter=0;endArrow=none;endFill=0;" edge="1" parent="1" source="P5K-hXNA6Evzv9LcCiTs-19" target="P5K-hXNA6Evzv9LcCiTs-5">
          <mxGeometry relative="1" as="geometry" />
        </mxCell>
        <mxCell id="P5K-hXNA6Evzv9LcCiTs-19" value="f0" style="text;html=1;align=center;verticalAlign=middle;resizable=0;points=[];autosize=1;strokeColor=none;fillColor=none;fontSize=15;fontStyle=1" vertex="1" parent="1">
          <mxGeometry x="680" y="230" width="40" height="30" as="geometry" />
        </mxCell>
        <mxCell id="P5K-hXNA6Evzv9LcCiTs-23" style="edgeStyle=orthogonalEdgeStyle;rounded=0;orthogonalLoop=1;jettySize=auto;html=1;entryX=0;entryY=0.5;entryDx=0;entryDy=0;entryPerimeter=0;endArrow=none;endFill=0;" edge="1" parent="1" source="P5K-hXNA6Evzv9LcCiTs-21" target="P5K-hXNA6Evzv9LcCiTs-22">
          <mxGeometry relative="1" as="geometry" />
        </mxCell>
        <mxCell id="P5K-hXNA6Evzv9LcCiTs-21" value="oe_n" style="text;html=1;align=center;verticalAlign=middle;resizable=0;points=[];autosize=1;strokeColor=none;fillColor=none;fontSize=15;fontStyle=1" vertex="1" parent="1">
          <mxGeometry x="110" y="343" width="60" height="30" as="geometry" />
        </mxCell>
        <mxCell id="P5K-hXNA6Evzv9LcCiTs-24" style="edgeStyle=orthogonalEdgeStyle;rounded=0;orthogonalLoop=1;jettySize=auto;html=1;entryX=0;entryY=0.72;entryDx=0;entryDy=0;entryPerimeter=0;endArrow=none;endFill=0;" edge="1" parent="1" source="P5K-hXNA6Evzv9LcCiTs-22" target="P5K-hXNA6Evzv9LcCiTs-5">
          <mxGeometry relative="1" as="geometry" />
        </mxCell>
        <mxCell id="P5K-hXNA6Evzv9LcCiTs-22" value="" style="verticalLabelPosition=bottom;shadow=0;dashed=0;align=center;html=1;verticalAlign=top;shape=mxgraph.electrical.logic_gates.inverter_2" vertex="1" parent="1">
          <mxGeometry x="190" y="328" width="100" height="60" as="geometry" />
        </mxCell>
        <mxCell id="P5K-hXNA6Evzv9LcCiTs-28" value="up1_down0" style="text;html=1;align=center;verticalAlign=middle;resizable=0;points=[];autosize=1;strokeColor=none;fillColor=none;fontSize=15;fontStyle=1" vertex="1" parent="1">
          <mxGeometry x="160" y="658" width="110" height="30" as="geometry" />
        </mxCell>
        <mxCell id="P5K-hXNA6Evzv9LcCiTs-36" value="pup_en_i" style="text;html=1;align=center;verticalAlign=middle;resizable=0;points=[];autosize=1;strokeColor=none;fillColor=none;fontSize=15;fontStyle=1" vertex="1" parent="1">
          <mxGeometry x="350" y="480" width="90" height="30" as="geometry" />
        </mxCell>
      </root>
    </mxGraphModel>
  </diagram>
</mxfile>
